<svg xmlns="http://www.w3.org/2000/svg" width="1200" height="700" viewBox="0 0 1200 700" role="img" aria-labelledby="t3 d3">
  <title id="t3">Resenas y reputacion</title>
  <desc id="d3">Panel de reputacion con estrellas en paleta azul y verde.</desc>
  <defs>
    <linearGradient id="bg3" x1="0" y1="0" x2="1" y2="1">
      <stop offset="0%" stop-color="#2d9ad7"/>
      <stop offset="100%" stop-color="#1e2f6f"/>
    </linearGradient>
  </defs>
  <rect width="1200" height="700" fill="url(#bg3)"/>
  <rect x="120" y="105" width="960" height="490" rx="30" fill="#ffffff" opacity="0.94"/>
  <text x="180" y="205" fill="#1e2f6f" font-family="Segoe UI, Arial" font-size="50" font-weight="700">Resenas que generan confianza</text>
  <text x="180" y="252" fill="#49649d" font-family="Segoe UI, Arial" font-size="28">Calificaciones reales de clientes por cada trabajo realizado</text>
  <g transform="translate(180 320)">
    <polygon points="30,0 38,20 60,22 44,36 48,58 30,46 12,58 16,36 0,22 22,20" fill="#57b547"/>
    <polygon points="95,0 103,20 125,22 109,36 113,58 95,46 77,58 81,36 65,22 87,20" fill="#57b547"/>
    <polygon points="160,0 168,20 190,22 174,36 178,58 160,46 142,58 146,36 130,22 152,20" fill="#57b547"/>
    <polygon points="225,0 233,20 255,22 239,36 243,58 225,46 207,58 211,36 195,22 217,20" fill="#57b547"/>
    <polygon points="290,0 298,20 320,22 304,36 308,58 290,46 272,58 276,36 260,22 282,20" fill="#57b547"/>
  </g>
  <rect x="180" y="430" width="780" height="38" rx="10" fill="#d9e7ff"/>
  <rect x="180" y="486" width="650" height="30" rx="10" fill="#e8f1ff"/>
</svg>
